<svg width="2000" height="320" xmlns="http://www.w3.org/2000/svg" stroke="null" style="vector-effect: non-scaling-stroke;">
 <g stroke="null">
  <title stroke="null">Layer 1</title>
  <path transform="rotate(180 934.285 233.489)" stroke="null" d="m-171.71508,241.53766l34.2,-11.38027c34.2,-11.38027 114.37055,-58.14081 182.77055,-54.3711c68.4,4.05422 125.02944,57.92743 193.42944,73.36193c68.4,15.14999 136.8,17.14999 205.19999,13.38027c68.4,-4.05422 136.8,-13.16689 205.19999,-28.60139c68.4,-15.14999 136.8,-37.91053 205.19999,-41.68024c68.4,-4.05422 136.8,11.59365 205.19999,11.38027c68.4,0.21338 136.8,-15.43449 205.19999,-7.61056c68.4,7.82394 182.51449,54.84008 250.91449,58.89431c68.4,3.76971 165.37156,-36.13376 233.77155,-47.51403c68.4,-11.38027 239.65761,-74.2377 273.85761,-74.2377l17.05706,17.14294l-160.00074,159.51721l-34.2,0c-34.2,0 -102.6,0 -170.99999,0c-68.4,0 -136.8,0 -205.19999,0c-68.4,0 -136.8,0 -205.19999,0c-68.4,0 -136.8,0 -205.19999,0c-68.4,0 -125.02944,-12 -193.42944,-12c-68.4,0 -148.57055,12 -216.97055,12c-68.4,0 -148.57055,24 -216.97055,24c-68.4,0 -125.02944,-24 -193.42944,-24c-68.4,0 -165.37156,8.57156 -233.77155,8.57156c-68.4,0 -108.22844,-8.57156 -142.42843,-8.57156l-34.2,0l0,-68.28163z" fill="#143144"/>
  <path transform="rotate(-180 1006.38 126.381)" stroke="null" d="m-9.95239,162.25801l33.87778,-5.90698c33.87778,-5.90698 101.63335,-17.72095 169.38891,-15.76426c67.75556,2.10436 135.51113,17.6102 203.26669,25.62154c67.75556,7.86367 135.51113,7.86367 203.26669,5.90698c67.75556,-2.10436 135.51113,-5.79623 203.26669,-13.80758c67.75556,-7.86367 135.51113,-19.67764 203.26669,-21.63433c67.75556,-2.10436 135.51113,6.01774 203.26669,5.90698c67.75556,0.11076 135.51113,-8.01135 203.26669,-3.9503c67.75556,4.06105 135.51113,19.56688 203.26669,21.67125c67.75556,1.95669 135.51113,-9.85728 203.26669,-15.76426c67.75556,-5.90698 135.51113,-5.90698 169.38891,-5.90698l33.87778,0l0,-59.06984l-33.87778,0c-33.87778,0 -101.63335,0 -169.38891,0c-67.75556,0 -135.51113,0 -203.26669,0c-67.75556,0 -135.51113,0 -203.26669,0c-67.75556,0 -135.51113,0 -203.26669,0c-67.75556,0 -135.51113,0 -203.26669,0c-67.75556,0 -135.51113,0 -203.26669,0c-67.75556,0 -135.51113,0 -203.26669,0c-67.75556,0 -135.51113,0 -203.26669,0c-67.75556,0 -135.51113,0 -203.26669,0c-67.75556,0 -135.51113,0 -169.38891,0l-33.87778,0l0,82.69778z" fill="#143144"/>
 </g>

</svg>