<svg width="2056" height="110" xmlns="http://www.w3.org/2000/svg" style="vector-effect: non-scaling-stroke;" stroke="null">

 <g stroke="null">
  <title stroke="null">Layer 1</title>
  <path stroke="null" id="svg_1" d="m-6.6667,40.24955l31.36779,0c31.36778,0 104.53499,-25.92158 171.12667,-14.60506c66.59167,11.31652 111.18337,71.4934 174.49449,71.69418c62.59168,-0.20078 125.18336,-28.31031 188.49448,-24.96394c62.44779,3.34637 148.0092,35.15075 223.16114,25.71169c75.15194,-9.43906 64.87964,-46.5574 22.86949,-48.07447c-42.01015,-1.51707 -71.85798,15.46432 -88.91278,15.83451c-17.0548,0.37019 -43.72039,-14.17149 -24.08023,-36.07927c19.64016,-21.90778 114.31601,-31.62006 187.9202,-19.86982c73.60418,11.75024 215.99803,61.90435 282.05338,56.73909c66.05535,-5.16526 210.43887,-73.64989 272.02243,-56.51047c123.16711,34.27884 192.6221,87.0119 254.49433,94.37392c63.02334,7.36201 125.18335,-28.77881 188.49448,-46.38073c62.87945,-17.86963 125.18335,-17.86963 156.83891,-17.86963l31.65556,0l0,107.08392l-31.36778,0c-31.36778,0 -93.81557,0 -157.12669,0c-62.59168,0 -125.18336,0 -188.49448,0c-62.59168,0 -125.18335,0 -188.49447,0c-62.44779,0 -125.18336,0 -188.49448,0c-62.3039,0 -125.18335,0 -188.49447,0c-62.16001,0 -125.18336,0 -187.05559,0c-63.45501,0 -126.62224,0 -188.49448,0c-63.31112,0 -126.62224,0 -188.49447,0c-63.16723,0 -126.62224,0 -188.49448,0c-63.02334,0 -125.18335,0 -188.49447,0c-62.87946,0 -125.18335,0 -156.83891,0l-31.65557,0l0,-107.08392z" fill="#284b63"/>
  <path id="svg_2" d="m886.40273,135.99997" opacity="NaN" stroke="null" fill="#000000"/>
 </g>
</svg>